<svg viewBox="0 0 269 76" fill="none" xmlns="http://www.w3.org/2000/svg">
<path d="M257.676 54.4688C255.27 54.4688 253.191 53.9688 251.441 52.9688C249.702 51.9583 248.363 50.5313 247.426 48.6875C246.488 46.8333 246.02 44.651 246.02 42.1406C246.02 39.6719 246.488 37.5052 247.426 35.6406C248.374 33.7656 249.697 32.3073 251.395 31.2656C253.092 30.2135 255.087 29.6875 257.379 29.6875C258.858 29.6875 260.254 29.9271 261.566 30.4062C262.889 30.875 264.056 31.6042 265.066 32.5938C266.087 33.5833 266.889 34.8437 267.473 36.375C268.056 37.8958 268.348 39.7083 268.348 41.8125V43.5469H248.676V39.7344H262.926C262.915 38.651 262.681 37.6875 262.223 36.8438C261.764 35.9896 261.124 35.3177 260.301 34.8281C259.488 34.3385 258.54 34.0938 257.457 34.0938C256.301 34.0938 255.285 34.375 254.41 34.9375C253.535 35.4896 252.853 36.2188 252.363 37.125C251.884 38.0208 251.639 39.0052 251.629 40.0781V43.4062C251.629 44.8021 251.884 46 252.395 47C252.905 47.9896 253.618 48.75 254.535 49.2812C255.452 49.8021 256.525 50.0625 257.754 50.0625C258.577 50.0625 259.322 49.9479 259.988 49.7188C260.655 49.4792 261.233 49.1302 261.723 48.6719C262.212 48.2135 262.582 47.6458 262.832 46.9688L268.113 47.5625C267.78 48.9583 267.145 50.1771 266.207 51.2188C265.28 52.25 264.092 53.0521 262.645 53.625C261.197 54.1875 259.54 54.4688 257.676 54.4688Z" fill="white"/>
<path d="M243.523 30V34.375H229.336V30H243.523ZM232.883 54V27.7344C232.883 26.1198 233.216 24.776 233.883 23.7031C234.56 22.6302 235.466 21.8281 236.602 21.2969C237.737 20.7656 238.997 20.5 240.383 20.5C241.362 20.5 242.232 20.5781 242.992 20.7344C243.753 20.8906 244.315 21.0313 244.68 21.1563L243.555 25.5313C243.315 25.4583 243.013 25.3854 242.648 25.3125C242.284 25.2292 241.878 25.1875 241.43 25.1875C240.378 25.1875 239.633 25.4427 239.195 25.9531C238.768 26.4531 238.555 27.1719 238.555 28.1094V54H232.883Z" fill="white"/>
<path d="M219.895 54V30H225.551V54H219.895ZM222.738 26.5938C221.842 26.5938 221.072 26.2969 220.426 25.7031C219.78 25.099 219.457 24.375 219.457 23.5312C219.457 22.6771 219.78 21.9531 220.426 21.3594C221.072 20.7552 221.842 20.4531 222.738 20.4531C223.645 20.4531 224.415 20.7552 225.051 21.3594C225.697 21.9531 226.02 22.6771 226.02 23.5312C226.02 24.375 225.697 25.099 225.051 25.7031C224.415 26.2969 223.645 26.5938 222.738 26.5938Z" fill="white"/>
<path d="M195.223 54V22H201.02V49.1406H215.113V54H195.223Z" fill="white"/>
<path d="M179.516 54.4688C177.109 54.4688 175.031 53.9688 173.281 52.9688C171.542 51.9583 170.203 50.5313 169.266 48.6875C168.328 46.8333 167.859 44.651 167.859 42.1406C167.859 39.6719 168.328 37.5052 169.266 35.6406C170.214 33.7656 171.536 32.3073 173.234 31.2656C174.932 30.2135 176.927 29.6875 179.219 29.6875C180.698 29.6875 182.094 29.9271 183.406 30.4062C184.729 30.875 185.896 31.6042 186.906 32.5938C187.927 33.5833 188.729 34.8437 189.312 36.375C189.896 37.8958 190.188 39.7083 190.188 41.8125V43.5469H170.516V39.7344H184.766C184.755 38.651 184.521 37.6875 184.062 36.8438C183.604 35.9896 182.964 35.3177 182.141 34.8281C181.328 34.3385 180.38 34.0938 179.297 34.0938C178.141 34.0938 177.125 34.375 176.25 34.9375C175.375 35.4896 174.693 36.2188 174.203 37.125C173.724 38.0208 173.479 39.0052 173.469 40.0781V43.4062C173.469 44.8021 173.724 46 174.234 47C174.745 47.9896 175.458 48.75 176.375 49.2812C177.292 49.8021 178.365 50.0625 179.594 50.0625C180.417 50.0625 181.161 49.9479 181.828 49.7188C182.495 49.4792 183.073 49.1302 183.562 48.6719C184.052 48.2135 184.422 47.6458 184.672 46.9688L189.953 47.5625C189.62 48.9583 188.984 50.1771 188.047 51.2188C187.12 52.25 185.932 53.0521 184.484 53.625C183.036 54.1875 181.38 54.4688 179.516 54.4688Z" fill="white"/>
<path d="M147.734 39.9375V54H142.078V30H147.484V34.0781H147.766C148.318 32.7344 149.198 31.6667 150.406 30.875C151.625 30.0833 153.13 29.6875 154.922 29.6875C156.578 29.6875 158.021 30.0417 159.25 30.75C160.49 31.4583 161.448 32.4844 162.125 33.8281C162.812 35.1719 163.151 36.8021 163.141 38.7188V54H157.484V39.5938C157.484 37.9896 157.068 36.7344 156.234 35.8281C155.411 34.9219 154.271 34.4688 152.812 34.4688C151.823 34.4688 150.943 34.6875 150.172 35.125C149.411 35.5521 148.813 36.1719 148.375 36.9844C147.948 37.7969 147.734 38.7812 147.734 39.9375Z" fill="white"/>
<path d="M130.605 54V30H136.262V54H130.605ZM133.449 26.5938C132.553 26.5938 131.783 26.2969 131.137 25.7031C130.491 25.099 130.168 24.375 130.168 23.5312C130.168 22.6771 130.491 21.9531 131.137 21.3594C131.783 20.7552 132.553 20.4531 133.449 20.4531C134.355 20.4531 135.126 20.7552 135.762 21.3594C136.408 21.9531 136.73 22.6771 136.73 23.5312C136.73 24.375 136.408 25.099 135.762 25.7031C135.126 26.2969 134.355 26.5938 133.449 26.5938Z" fill="white"/>
<path d="M125.547 32.7969H119.703C119.536 31.8385 119.229 30.9896 118.781 30.25C118.333 29.5 117.776 28.8646 117.109 28.3437C116.443 27.8229 115.682 27.4323 114.828 27.1719C113.984 26.901 113.073 26.7656 112.094 26.7656C110.354 26.7656 108.812 27.2031 107.469 28.0781C106.125 28.9427 105.073 30.2135 104.312 31.8906C103.552 33.5573 103.172 35.5938 103.172 38C103.172 40.4479 103.552 42.5104 104.312 44.1875C105.083 45.8542 106.135 47.1146 107.469 47.9688C108.812 48.8125 110.349 49.2344 112.078 49.2344C113.036 49.2344 113.932 49.1094 114.766 48.8594C115.609 48.599 116.365 48.2187 117.031 47.7188C117.708 47.2188 118.276 46.6042 118.734 45.875C119.203 45.1458 119.526 44.3125 119.703 43.375L125.547 43.4062C125.328 44.9271 124.854 46.3542 124.125 47.6875C123.406 49.0208 122.464 50.1979 121.297 51.2188C120.13 52.2292 118.766 53.0208 117.203 53.5938C115.641 54.1562 113.906 54.4375 112 54.4375C109.187 54.4375 106.677 53.7865 104.469 52.4844C102.26 51.1823 100.521 49.3021 99.25 46.8438C97.9792 44.3854 97.3438 41.4375 97.3438 38C97.3438 34.5521 97.9844 31.6042 99.2656 29.1563C100.547 26.6979 102.292 24.8177 104.5 23.5156C106.708 22.2135 109.208 21.5625 112 21.5625C113.781 21.5625 115.438 21.8125 116.969 22.3125C118.5 22.8125 119.865 23.5469 121.062 24.5156C122.26 25.474 123.245 26.651 124.016 28.0469C124.797 29.4323 125.307 31.0156 125.547 32.7969Z" fill="white"/>
<path d="M4.54539 22.5816C7.25912 17.5971 10.3221 12.8303 13.7342 8.28109C16.4443 4.65698 19.8619 2.21189 23.9871 0.94581C25.7914 0.390766 28.5087 0.0951054 32.1391 0.0588281C39.0471 -0.0137267 45.9569 -0.0191681 52.8686 0.0425034C54.1127 0.0533866 55.2422 0.261981 56.2571 0.668288C65.5605 4.3849 69.1673 10.855 73.7508 19.0772C76.3699 23.7679 79.8075 29.3891 80.6642 34.2321C81.9956 41.7578 79.2128 46.2308 75.0549 53.8164C73.6398 56.3958 71.9119 59.4358 69.8712 62.9366C66.579 68.5777 62.0665 72.5591 56.3335 74.8809C55.3622 75.2727 54.2673 75.4668 53.0486 75.4631C44.9075 75.4377 36.7645 75.4831 28.6197 75.5992C27.3901 75.6137 26.2843 75.4323 25.3021 75.055C19.349 72.7641 15.5785 69.3359 11.8681 63.7474C8.84151 59.1982 6.09323 54.4894 3.62324 49.621C1.7571 45.9461 0.63487 42.9242 0.256549 40.5553C-0.763825 34.1723 1.3806 28.3933 4.54539 22.5816ZM27.6757 23.0115C27.261 33.1184 27.1937 42.5723 27.4738 51.3732C27.5175 52.7009 27.6066 53.7366 27.7412 54.4803C27.7566 54.5656 27.7905 54.6467 27.8404 54.7181C27.8903 54.7894 27.9551 54.8494 28.0304 54.8939C29.5255 55.7863 33.3505 53.441 34.7747 52.6628C40.6895 49.4305 46.5608 46.122 52.3884 42.7373C54.2327 41.6653 58.1614 39.4506 58.838 37.3719C58.9035 37.1724 58.8653 36.9946 58.7234 36.8386C58.0941 36.1421 57.2938 35.4746 56.3226 34.8361C48.2323 29.5106 40.2112 24.8109 32.2592 20.7369C31.3279 20.2617 30.0602 20.2145 28.456 20.5954C28.2741 20.6353 28.1504 20.7424 28.0849 20.9165C27.8412 21.5332 27.7048 22.2316 27.6757 23.0115Z" fill="#117BC5"/>
</svg>
