<svg xmlns="http://www.w3.org/2000/svg" version="1.1" viewBox="0.00 0.00 800.00 149.00">
<path fill="#117bc5" d="   M 11.74 46.59   Q 19.20 32.85 28.58 20.31   Q 36.03 10.32 47.37 6.83   Q 52.33 5.30 62.31 5.20   Q 81.30 5.00 100.30 5.17   Q 103.72 5.20 106.51 6.32   C 123.56 13.15 130.17 25.04 138.57 40.15   C 143.37 48.77 149.67 59.10 151.24 68.00   C 153.68 81.83 148.58 90.05 140.96 103.99   Q 137.07 111.10 131.46 120.75   Q 122.41 136.30 106.65 142.70   Q 103.98 143.78 100.63 143.77   Q 78.25 143.70 55.86 144.02   Q 52.48 144.06 49.78 143.02   C 38.87 138.81 31.96 132.51 25.16 122.24   Q 16.84 109.70 10.05 96.28   Q 4.92 86.15 3.88 79.62   C 2.01 67.89 5.94 57.27 11.74 46.59   Z   M 54.13 47.38   Q 52.99 75.24 53.76 99.50   Q 53.88 103.16 54.25 105.21   A 1.12 1.11 10.3 0 0 54.78 105.97   C 57.52 107.61 64.53 103.30 67.14 101.87   Q 83.40 92.96 99.42 83.63   C 102.80 81.66 110.00 77.59 111.24 73.77   Q 111.42 73.22 111.03 72.79   Q 109.30 70.87 106.63 69.11   Q 84.39 54.43 62.53 43.20   Q 59.97 41.89 55.56 42.94   Q 55.06 43.05 54.88 43.53   Q 54.21 45.23 54.13 47.38   Z"/>
<path fill="#117bc5" d="   M 644.08 23.51   A 8.73 8.73 0.0 0 1 635.35 32.24   A 8.73 8.73 0.0 0 1 626.62 23.51   A 8.73 8.73 0.0 0 1 635.35 14.78   A 8.73 8.73 0.0 0 1 644.08 23.51   Z"/>
<path fill="#117bc5" d="   M 333.69 23.61   A 8.73 8.73 0.0 0 1 324.96 32.34   A 8.73 8.73 0.0 0 1 316.23 23.61   A 8.73 8.73 0.0 0 1 324.96 14.88   A 8.73 8.73 0.0 0 1 333.69 23.61   Z"/>
<path fill="#117bc5" d="   M 686.62 132.14   Q 686.47 132.31 686.25 132.33   Q 681.26 132.81 675.61 132.42   A 1.78 1.78 0.0 0 1 673.95 130.69   Q 673.22 98.54 673.37 66.07   C 673.39 61.61 668.76 62.11 665.07 61.46   A 0.71 0.71 0.0 0 1 664.49 60.80   L 664.11 52.44   A 0.57 0.56 -3.0 0 1 664.65 51.85   C 669.17 51.61 673.28 50.66 673.39 45.40   C 673.62 34.68 676.23 20.97 687.69 18.00   C 691.09 17.12 698.79 15.00 701.35 16.97   A 0.87 0.87 0.0 0 1 701.68 17.65   L 701.71 25.34   A 0.78 0.77 -10.5 0 1 701.21 26.06   C 696.72 27.79 691.06 28.75 689.02 34.06   C 687.50 38.05 684.73 51.08 691.41 51.48   Q 696.40 51.78 701.49 51.95   A 0.83 0.83 0.0 0 1 702.29 52.78   L 702.29 59.65   A 2.03 2.03 0.0 0 1 700.35 61.68   L 690.36 62.17   Q 687.96 62.28 687.93 64.68   Q 687.53 97.67 687.59 130.75   Q 687.59 131.22 687.14 131.59   A 0.90 0.03 -48.3 0 0 686.62 132.14   Z"/>
<path fill="#117bc5" d="   M 224.87 116.07   C 238.16 124.68 254.63 122.87 266.80 112.80   Q 268.51 111.38 272.72 106.02   A 1.11 1.09 -70.4 0 1 273.61 105.59   L 288.01 105.70   A 0.84 0.83 15.1 0 1 288.73 106.94   Q 274.39 132.37 246.75 133.22   C 195.96 134.78 177.46 67.08 214.05 37.07   Q 222.32 30.29 235.25 28.37   Q 270.28 23.16 288.54 52.73   A 1.45 1.44 -25.1 0 1 287.77 54.86   Q 287.26 55.03 286.50 55.02   Q 281.31 54.92 276.12 54.91   C 274.41 54.90 273.24 54.45 272.26 52.90   C 264.08 39.84 246.77 36.74 233.00 41.24   C 217.66 46.25 210.56 59.22 208.93 74.84   C 207.44 89.16 212.06 107.78 224.87 116.07   Z"/>
<path fill="#117bc5" d="   M 571.92 121.83   A 1.58 1.57 84.1 0 0 573.46 123.09   L 605.97 123.17   Q 606.51 123.18 606.52 123.72   L 606.57 131.42   Q 606.57 132.09 605.90 132.11   Q 593.72 132.45 562.76 132.56   Q 560.24 132.57 558.68 132.13   A 0.85 0.85 0.0 0 1 558.06 131.38   Q 557.72 127.88 557.72 126.00   Q 557.47 78.17 557.77 29.70   Q 557.78 28.15 559.32 28.15   L 569.95 28.11   A 1.58 1.58 0.0 0 1 571.53 29.69   Q 571.49 73.30 571.43 116.62   Q 571.43 119.46 571.92 121.83   Z"/>
<path fill="#117bc5" d="   M 378.07 61.78   C 379.50 61.42 381.21 60.39 382.49 59.28   C 386.87 55.53 392.34 51.59 398.24 50.97   C 415.79 49.15 429.33 57.47 433.09 75.00   Q 434.05 79.50 434.09 88.60   Q 434.18 109.69 434.14 130.89   A 1.64 1.64 0.0 0 1 432.50 132.52   L 422.29 132.52   A 1.44 1.44 0.0 0 1 420.85 131.11   Q 420.51 112.67 420.63 94.00   Q 420.70 82.53 419.30 76.22   C 416.33 62.82 399.65 58.90 388.46 63.05   C 375.17 67.99 374.94 78.46 374.59 92.34   Q 374.25 105.58 374.54 118.84   C 374.62 122.58 374.17 126.71 374.25 130.64   A 1.63 1.62 88.6 0 1 372.68 132.30   L 363.66 132.59   A 1.53 1.53 0.0 0 1 362.10 131.25   Q 361.68 127.80 361.65 124.75   Q 361.38 88.96 361.53 52.93   Q 361.54 51.34 363.12 51.34   L 372.43 51.37   A 1.78 1.77 -3.7 0 1 374.18 52.90   L 375.12 59.80   A 2.38 2.38 0.0 0 0 378.07 61.78   Z"/>
<path fill="#117bc5" d="   M 471.75 96.26   C 468.99 115.29 487.75 129.56 505.08 120.96   C 508.35 119.34 511.28 116.47 514.01 113.85   Q 514.38 113.49 514.89 113.45   Q 521.58 112.88 528.24 112.69   Q 529.01 112.67 529.24 112.91   Q 529.71 113.42 529.35 114.02   C 509.71 146.31 464.12 137.27 458.31 99.99   Q 456.58 88.92 459.13 78.26   C 462.61 63.73 474.48 51.57 490.01 50.87   C 497.49 50.53 504.85 50.85 511.56 53.60   C 528.19 60.40 534.30 76.91 533.85 93.72   A 1.17 1.16 0.8 0 1 532.68 94.85   C 512.76 94.87 492.36 94.23 472.40 95.65   Q 471.83 95.70 471.75 96.26   Z   M 475.62 87.73   L 516.10 87.45   A 4.05 4.05 0.0 0 0 520.13 83.37   L 520.12 83.04   A 23.39 22.68 -0.4 0 0 496.58 60.52   L 494.78 60.54   A 23.39 22.68 -0.4 0 0 471.54 83.38   L 471.55 83.71   A 4.05 4.05 0.0 0 0 475.62 87.73   Z"/>
<path fill="#117bc5" d="   M 733.30 96.63   Q 733.09 96.96 733.05 98.02   C 732.64 109.05 738.33 118.38 748.71 122.21   Q 760.80 126.67 772.13 117.08   Q 774.22 115.31 776.37 113.51   Q 776.74 113.19 777.23 113.17   L 790.19 112.62   A 0.62 0.61 6.5 0 1 790.81 113.39   Q 790.22 115.56 788.82 117.55   C 775.18 136.90 746.01 139.71 730.06 121.72   C 716.64 106.57 715.97 83.28 725.76 65.96   C 732.41 54.18 747.13 49.70 760.64 50.88   C 784.86 53.01 795.43 70.86 796.03 93.52   A 0.84 0.83 78.8 0 1 795.49 94.33   Q 794.40 94.75 792.75 94.77   Q 764.13 95.20 735.45 95.45   A 2.59 2.58 -73.6 0 0 733.30 96.63   Z   M 737.41 87.98   L 777.47 87.42   A 4.15 4.15 0.0 0 0 781.56 83.21   L 781.56 82.96   A 23.39 22.78 -0.8 0 0 757.85 60.51   L 756.27 60.53   A 23.39 22.78 -0.8 0 0 733.20 83.64   L 733.20 83.89   A 4.15 4.15 0.0 0 0 737.41 87.98   Z"/>
<path fill="#117bc5" d="   M 331.50 131.97   A 0.51 0.51 0.0 0 1 330.99 132.48   L 319.49 132.48   A 0.51 0.51 0.0 0 1 318.98 131.97   L 318.98 52.01   A 0.51 0.51 0.0 0 1 319.49 51.50   L 330.99 51.50   A 0.51 0.51 0.0 0 1 331.50 52.01   L 331.50 131.97   Z"/>
<path fill="#117bc5" d="   M 642.01 131.70   A 0.62 0.62 0.0 0 1 641.39 132.32   L 629.33 132.32   A 0.62 0.62 0.0 0 1 628.71 131.70   L 628.71 52.14   A 0.62 0.62 0.0 0 1 629.33 51.52   L 641.39 51.52   A 0.62 0.62 0.0 0 1 642.01 52.14   L 642.01 131.70   Z"/>
</svg>