<svg width="2.25em" height="2.25em" viewBox="0 0 66 66" fill="none" xmlns="http://www.w3.org/2000/svg">
<path fill-rule="evenodd" clip-rule="evenodd" d="M33.0001 17.3041C28.7985 17.3041 25.4303 20.7867 25.4303 25.0826C25.4303 29.2295 28.5828 32.6107 32.5772 32.8256C32.8524 32.8025 33.1458 32.8004 33.4308 32.8252C37.408 32.6068 40.5437 29.2387 40.5698 25.0761C40.5664 20.7877 37.1742 17.3041 33.0001 17.3041ZM20.9424 25.0826C20.9424 18.2488 26.311 12.6923 33.0001 12.6923C39.6549 12.6923 45.0578 18.2442 45.0578 25.0826C45.0578 25.0869 45.0578 25.0913 45.0577 25.0956C45.0211 31.7624 39.9181 37.2138 33.4356 37.4409C33.307 37.4454 33.1783 37.4386 33.0508 37.4204C33.0503 37.4204 33.0496 37.4203 33.0489 37.4203C33.0412 37.4198 33.0283 37.4192 33.0113 37.4192C32.9746 37.4192 32.9406 37.4217 32.9194 37.4245C32.8018 37.4396 32.6831 37.4451 32.5646 37.4409C26.0935 37.2142 20.9424 31.7712 20.9424 25.0826Z" fill="white"/>
<path fill-rule="evenodd" clip-rule="evenodd" d="M19.1124 49.6539C16.7631 51.2459 15.4499 53.0676 14.9382 54.7989C19.8374 58.9264 26.1183 61.3968 33.0004 61.3968C39.8826 61.3968 46.1635 58.9264 51.0627 54.7989C50.5508 53.0668 49.2366 51.2442 46.8854 49.6518C43.1939 47.1676 38.1744 45.8532 33.0233 45.8532C27.8745 45.8532 22.8375 47.1666 19.1124 49.6539ZM33.0233 41.25C38.8671 41.25 44.8273 42.7276 49.4322 45.8277L49.4372 45.831C53.1056 48.3145 55.4394 51.6854 55.8338 55.4146C55.9106 56.1415 55.6397 56.8619 55.1039 57.3555C49.2696 62.7307 41.5255 66 33.0004 66C24.4754 66 16.7313 62.7307 10.897 57.3555C10.3612 56.8619 10.0903 56.1415 10.1672 55.4146C10.5615 51.6854 12.8953 48.3145 16.5637 45.831C16.5675 45.8284 16.5713 45.8259 16.5751 45.8233C21.2071 42.7279 27.1788 41.25 33.0233 41.25Z" fill="white"/>
<path fill-rule="evenodd" clip-rule="evenodd" d="M0 33C0 14.7746 14.7746 0 33 0C51.2252 0 66 14.7746 66 33C66 51.2253 51.2253 66 33 66C14.7746 66 0 51.2252 0 33ZM33 4.60465C17.3177 4.60465 4.60465 17.3177 4.60465 33C4.60465 48.6822 17.3177 61.3953 33 61.3953C48.6822 61.3953 61.3953 48.6822 61.3953 33C61.3953 17.3177 48.6822 4.60465 33 4.60465Z" fill="white"/>
</svg>
