<svg  viewBox="0 0 40 40" fill="none" xmlns="http://www.w3.org/2000/svg">
<path fill-rule="evenodd" clip-rule="evenodd" d="M17 4C9.82029 4 4 9.82029 4 17C4 24.1796 9.8203 30 17 30C24.1796 30 30 24.1796 30 17C30 9.8203 24.1796 4 17 4ZM0 17C0 7.61115 7.61115 0 17 0C26.3888 0 34 7.61114 34 17C34 20.9807 32.6318 24.6418 30.34 27.5388L39.4121 36.5837C40.1943 37.3635 40.1962 38.6299 39.4163 39.4121C38.6365 40.1943 37.3701 40.1962 36.5879 39.4163L27.5084 30.364C24.6162 32.6414 20.9667 34 17 34C7.61114 34 0 26.3888 0 17Z" fill="#117BC5"/>
</svg>
