<svg width="86" height="80" viewBox="0 0 86 80" fill="none" xmlns="http://www.w3.org/2000/svg">
<path d="M4.82597 23.8959C7.70721 18.6213 10.9592 13.577 14.582 8.76306C17.4594 4.92803 21.088 2.34062 25.4677 1.00086C27.3834 0.413509 30.2685 0.100641 34.123 0.0622519C41.4574 -0.0145256 48.7938 -0.0202837 56.132 0.0449772C57.4529 0.0564938 58.6522 0.277229 59.7297 0.707183C69.6074 4.64011 73.4368 11.4867 78.3033 20.1876C81.0841 25.1512 84.7339 31.0996 85.6435 36.2244C87.0571 44.1882 84.1024 48.9215 79.6879 56.9486C78.1855 59.6781 76.3509 62.895 74.1842 66.5995C70.6889 72.569 65.8977 76.7822 59.8108 79.239C58.7796 79.6536 57.6171 79.859 56.3232 79.8552C47.6795 79.8283 39.0339 79.8763 30.3863 79.9991C29.0809 80.0145 27.9068 79.8225 26.8639 79.4233C20.5434 76.9991 16.5402 73.3713 12.6007 67.4575C9.38729 62.6436 6.46936 57.6607 3.84689 52.509C1.86556 48.6202 0.674059 45.4224 0.272386 42.9156C-0.810975 36.1611 1.46582 30.0458 4.82597 23.8959ZM29.3841 24.3508C28.9438 35.0459 28.8723 45.05 29.1697 54.3631C29.2161 55.7682 29.3107 56.8642 29.4536 57.6511C29.47 57.7414 29.5059 57.8272 29.5589 57.9027C29.6119 57.9782 29.6807 58.0417 29.7606 58.0888C31.348 59.0331 35.4092 56.5513 36.9212 55.7279C43.2013 52.3074 49.4349 48.8064 55.6222 45.2247C57.5804 44.0903 61.7516 41.7467 62.47 39.547C62.5395 39.3359 62.499 39.1478 62.3483 38.9827C61.6802 38.2456 60.8305 37.5393 59.7993 36.8636C51.2096 31.2282 42.6934 26.2549 34.2505 21.9438C33.2618 21.4409 31.9158 21.391 30.2125 21.7941C30.0194 21.8363 29.8881 21.9496 29.8186 22.1339C29.5598 22.7865 29.415 23.5255 29.3841 24.3508Z" fill="#117BC5"/>
</svg>
